<?xml version="1.0" standalone="no"?>
<!DOCTYPE svg PUBLIC "-//W3C//DTD SVG 20010904//EN"
 "http://www.w3.org/TR/2001/REC-SVG-20010904/DTD/svg10.dtd">
<svg version="1.0" xmlns="http://www.w3.org/2000/svg"
 width="346.000000pt" height="346.000000pt" viewBox="0 0 346.000000 346.000000"
 preserveAspectRatio="xMidYMid meet">
<metadata>
Created by potrace 1.14, written by Peter Selinger 2001-2017
</metadata>
<g transform="translate(0.000000,346.000000) scale(0.100000,-0.100000)"
fill="#000000" stroke="none">
<path d="M0 1730 l0 -1730 1730 0 1730 0 0 1730 0 1730 -1730 0 -1730 0 0
-1730z m2024 643 c15 -38 95 -250 179 -472 84 -223 157 -406 163 -408 5 -2 91
210 189 472 l179 475 153 0 153 0 0 -650 0 -650 -120 0 -120 0 0 440 c0 242
-4 440 -9 440 -4 0 -82 -197 -173 -437 l-164 -438 -86 -3 -86 -3 -26 68 c-14
37 -88 234 -165 438 -76 203 -144 371 -150 373 -8 3 -11 -120 -11 -437 l0
-441 -120 0 -120 0 0 650 0 650 154 0 154 0 26 -67z"/>
</g>
</svg>
